# xmcd
#
# Track frame offsets: 
#        150
#        28198
#        48427
#        70476
#        89483
#        111050
#        124300
#        139918
#        158770
#        181783
#        198910
#        225298
#        258315
#        293435
#        320652
#
# Disc length: 4563 seconds
#
# Revision: 1
# Processed by: cddbd v1.5.2PL0 Copyright (c) Steve Scherf et al.
# Submitted via: ExactAudioCopyFreeDBPlugin 1.0
#
DISCID=d111d10f
DTITLE=Various Artist - blues of love
DYEAR=1900
DGENRE=Blues
TTITLE0=Besame Mucho  - Silvia Droste
TTITLE1=Temptation - Diana Krall 
TTITLE2=When I Fall In Love-Lovisa
TTITLE3=The Look Of Love - Dionne Warwick
TTITLE4=Tears In Heaven - Noon
TTITLE5=La Vie En Rose - Cyntia M
TTITLE6=Dream A Little Dream Of Me - Sissel Kyrkjebo
TTITLE7=And I Love You - Soyoshiko Goto
TTITLE8=The Nearness Of You - Jean Frye Sidwell
TTITLE9=Nobody's Heart(Belongs To Me) - Stacey Kent
TTITLE10=He Got You - Sara K
TTITLE11=More Than You Know - Archie Shepp Quartet
TTITLE12=Merry Christmas Baby - Spirit Traveler
TTITLE13=Round Midnight - Carmen Lundy
TTITLE14=A Time For Love - Melissa Walker
EXTD=
EXTT0=
EXTT1=
EXTT2=
EXTT3=
EXTT4=
EXTT5=
EXTT6=
EXTT7=
EXTT8=
EXTT9=
EXTT10=
EXTT11=
EXTT12=
EXTT13=
EXTT14=
PLAYORDER=
